<?xml version="1.0" encoding="UTF-8" standalone="no"?>
<!-- Generator: Adobe Illustrator 21.0.0, SVG Export Plug-In . SVG Version: 6.00 Build 0)  -->

<svg
   xmlns:dc="http://purl.org/dc/elements/1.1/"
   xmlns:cc="http://creativecommons.org/ns#"
   xmlns:rdf="http://www.w3.org/1999/02/22-rdf-syntax-ns#"
   xmlns:svg="http://www.w3.org/2000/svg"
   xmlns="http://www.w3.org/2000/svg"
   xmlns:sodipodi="http://sodipodi.sourceforge.net/DTD/sodipodi-0.dtd"
   xmlns:inkscape="http://www.inkscape.org/namespaces/inkscape"
   version="1.1"
   id="Layer_1"
   x="0px"
   y="0px"
   viewBox="0 0 344 120"
   style="enable-background:new 0 0 344 120;"
   xml:space="preserve"
   sodipodi:docname="logo.svg"
   inkscape:version="0.92.2 (5c3e80d, 2017-08-06)"><metadata
     id="metadata65"><rdf:RDF><cc:Work
         rdf:about=""><dc:format>image/svg+xml</dc:format><dc:type
           rdf:resource="http://purl.org/dc/dcmitype/StillImage" /></cc:Work></rdf:RDF></metadata><defs
     id="defs63" /><sodipodi:namedview
     pagecolor="#ffffff"
     bordercolor="#666666"
     borderopacity="1"
     objecttolerance="10"
     gridtolerance="10"
     guidetolerance="10"
     inkscape:pageopacity="0"
     inkscape:pageshadow="2"
     inkscape:window-width="3840"
     inkscape:window-height="2004"
     id="namedview61"
     showgrid="false"
     inkscape:zoom="3.9333333"
     inkscape:cx="116.16452"
     inkscape:cy="130.85293"
     inkscape:window-x="-16"
     inkscape:window-y="-16"
     inkscape:window-maximized="1"
     inkscape:current-layer="g20" /><style
     type="text/css"
     id="style2">
	.st0{fill:#F5F7FC;}
	.st1{fill:#CAC0DF;}
</style><g
     id="g20"><text
       xml:space="preserve"
       style="font-style:normal;font-weight:normal;font-size:40px;line-height:1.25;font-family:sans-serif;letter-spacing:0px;word-spacing:0px;fill:#000000;fill-opacity:1;stroke:none"
       x="87.279747"
       y="100.7643"
       id="text4563"><tspan
         sodipodi:role="line"
         id="tspan4561"
         x="87.279747"
         y="136.15492" /></text>
<text
       xml:space="preserve"
       style="font-style:normal;font-weight:normal;font-size:40px;line-height:1.25;font-family:sans-serif;letter-spacing:0px;word-spacing:0px;fill:#cac0df;fill-opacity:1;stroke:none"
       x="84.493263"
       y="60.315395"
       id="text4567"><tspan
         sodipodi:role="line"
         id="tspan4565"
         x="84.493263"
         y="60.315395">Astrovpn</tspan></text>
</g><g
     id="g58"><path
       class="st1"
       d="M92.3,79l-1.2-4.5h0L89.9,79H88l-2.2-6.7h2l1.2,4.6h0l1.1-4.6H92l1.2,4.6h0.1l1.2-4.6h1.9L94.3,79   C94.3,79,92.3,79,92.3,79z"
       id="path22" /><path
       class="st1"
       d="M100.9,69.8v3.5h0.1c0.2-0.4,0.5-0.7,0.9-0.8c0.3-0.2,0.7-0.2,1-0.2c0.5,0,0.9,0.1,1.2,0.2   c0.3,0.2,0.5,0.3,0.8,0.5c0.2,0.2,0.3,0.6,0.4,0.8c0.1,0.3,0.1,0.7,0.1,1.2v4.2h-1.8v-3.8c0-0.6-0.1-1-0.2-1.2   c-0.2-0.3-0.5-0.4-0.9-0.4c-0.5,0-0.8,0.2-1.1,0.4c-0.2,0.3-0.3,0.8-0.3,1.5v3.5h-1.9v-9.3H100.9z"
       id="path24" /><path
       class="st1"
       d="M110.8,77.4c0.3,0.2,0.7,0.4,1.2,0.4c0.3,0,0.7-0.1,0.9-0.3c0.2-0.2,0.5-0.4,0.5-0.6h1.6   c-0.2,0.8-0.7,1.4-1.2,1.8c-0.5,0.3-1.2,0.5-1.9,0.5c-0.6,0-1-0.1-1.5-0.2c-0.4-0.2-0.8-0.4-1.1-0.7c-0.3-0.3-0.5-0.7-0.7-1.1   c-0.1-0.4-0.2-0.9-0.2-1.4c0-0.5,0.1-1,0.2-1.4c0.2-0.5,0.4-0.8,0.7-1.1c0.3-0.3,0.7-0.6,1.1-0.8c0.4-0.2,0.9-0.2,1.4-0.2   c0.5,0,1,0.1,1.5,0.3c0.4,0.2,0.8,0.5,1,0.9c0.2,0.3,0.5,0.8,0.6,1.2c0.1,0.5,0.1,1,0.1,1.5h-4.8C110.3,76.7,110.5,77.2,110.8,77.4   z M112.9,73.9c-0.2-0.2-0.5-0.3-1-0.3c-0.3,0-0.5,0-0.8,0.2c-0.2,0.1-0.3,0.2-0.4,0.3s-0.2,0.3-0.2,0.4c-0.1,0.2-0.1,0.3-0.1,0.5h3   C113.2,74.5,113.1,74.1,112.9,73.9z"
       id="path26" /><path
       class="st1"
       d="M120,72.3v1h0c0.2-0.4,0.6-0.7,0.9-0.8c0.3-0.2,0.8-0.2,1.2-0.2c0.5,0,0.9,0,1.2,0.2c0.3,0.2,0.5,0.3,0.8,0.6   c0.2,0.2,0.3,0.5,0.4,0.8c0,0.3,0.1,0.7,0.1,1.2v4.2h-1.8v-3.8c0-0.5-0.1-0.9-0.2-1.2c-0.2-0.3-0.5-0.4-0.9-0.4   c-0.5,0-0.8,0.2-1.1,0.5c-0.2,0.3-0.3,0.8-0.3,1.5v3.5h-1.8v-6.8H120z"
       id="path28" /><path
       class="st1"
       d="M135.3,72.3v0.8h0c0.2-0.3,0.5-0.7,0.9-0.8c0.3-0.2,0.8-0.2,1.1-0.2c0.6,0,1,0.1,1.4,0.3   c0.4,0.2,0.7,0.5,0.9,0.8s0.4,0.7,0.6,1.2c0.1,0.4,0.2,0.9,0.2,1.3s-0.1,0.9-0.2,1.3c-0.1,0.4-0.3,0.8-0.6,1.1   c-0.2,0.3-0.6,0.6-0.9,0.8c-0.4,0.2-0.8,0.3-1.3,0.3c-0.4,0-0.8-0.1-1.2-0.2c-0.3-0.2-0.6-0.4-0.8-0.8h-0.1v3.2h-1.8v-9H135.3z    M137.7,77.6c0.2-0.1,0.3-0.3,0.5-0.5c0.1-0.2,0.2-0.4,0.2-0.7c0.1-0.2,0.1-0.5,0.1-0.8c0-0.3,0-0.5-0.1-0.8s-0.2-0.5-0.3-0.7   c-0.1-0.2-0.3-0.3-0.5-0.5s-0.4-0.2-0.8-0.2s-0.6,0-0.8,0.2s-0.3,0.3-0.5,0.5c-0.1,0.2-0.2,0.5-0.2,0.7s-0.1,0.5-0.1,0.8   s0,0.6,0.1,0.8s0.2,0.5,0.2,0.7c0.2,0.2,0.3,0.3,0.5,0.5c0.2,0.1,0.4,0.2,0.8,0.2C137.2,77.8,137.5,77.8,137.7,77.6z"
       id="path30" /><path
       class="st1"
       d="M145.2,72.3v1.2h0.1c0.1-0.2,0.2-0.4,0.3-0.6c0.2-0.2,0.3-0.3,0.5-0.4c0.2-0.2,0.4-0.2,0.6-0.3   s0.4-0.1,0.7-0.1c0.1,0,0.2,0,0.4,0.1v1.7c-0.1,0-0.2,0-0.3,0c-0.1,0-0.2,0-0.4,0c-0.3,0-0.6,0-0.8,0.2c-0.2,0.1-0.4,0.2-0.6,0.4   c-0.2,0.2-0.2,0.4-0.3,0.7c-0.1,0.2-0.1,0.5-0.1,0.8v3h-1.9v-6.7H145.2z"
       id="path32" /><path
       class="st1"
       d="M150.6,71.3v-1.5h1.9v1.5H150.6z M152.4,72.3V79h-1.9v-6.7H152.4z"
       id="path34" /><path
       class="st1"
       d="M157.5,79l-2.3-6.7h1.9l1.4,4.6h0.1l1.4-4.6h1.9l-2.3,6.7H157.5z"
       id="path36" /><path
       class="st1"
       d="M164.5,74.4c0.1-0.5,0.2-0.8,0.3-1.1c0.2-0.3,0.4-0.5,0.8-0.7c0.3-0.2,0.7-0.3,1-0.3c0.4,0,0.8-0.1,1.1-0.1   c0.3,0,0.7,0,1.1,0.1c0.3,0,0.6,0.2,0.9,0.3c0.3,0.2,0.5,0.3,0.7,0.6s0.2,0.6,0.2,1v3.5c0,0.3,0,0.6,0.1,0.8s0.1,0.5,0.2,0.6H169   c-0.1-0.1-0.1-0.2-0.1-0.3c0-0.1-0.1-0.2-0.1-0.3c-0.3,0.3-0.7,0.5-1.1,0.7c-0.4,0.1-0.8,0.2-1.2,0.2c-0.3,0-0.6,0-0.9-0.1   c-0.3-0.1-0.5-0.2-0.8-0.3c-0.2-0.1-0.3-0.3-0.5-0.6c-0.1-0.2-0.2-0.5-0.2-0.9c0-0.4,0.1-0.7,0.2-0.9c0.2-0.2,0.3-0.5,0.5-0.6   c0.2-0.2,0.4-0.2,0.8-0.3c0.2-0.1,0.6-0.2,0.9-0.2c0.3,0,0.6-0.1,0.8-0.1c0.2,0,0.5,0,0.7-0.1c0.2,0,0.3-0.2,0.5-0.2   c0.1-0.1,0.2-0.2,0.1-0.4c0-0.2-0.1-0.3-0.1-0.5c-0.1-0.1-0.2-0.2-0.2-0.2c-0.1,0-0.2-0.1-0.4-0.2c-0.1,0-0.3,0-0.4,0   c-0.3,0-0.6,0.1-0.8,0.2s-0.4,0.4-0.4,0.8L164.5,74.4L164.5,74.4z M168.8,75.7c-0.1,0-0.2,0.1-0.3,0.2c-0.1,0-0.2,0-0.4,0.1   c-0.2,0-0.3,0-0.4,0c-0.1,0-0.3,0.1-0.4,0.1c-0.1,0-0.2,0-0.4,0.1c-0.2,0-0.2,0.1-0.4,0.2c-0.1,0.1-0.2,0.2-0.2,0.3   c-0.1,0.1-0.1,0.2-0.1,0.4c0,0.2,0.1,0.3,0.1,0.4c0.1,0.1,0.2,0.2,0.2,0.2c0.1,0.1,0.2,0.1,0.4,0.2c0.1,0.1,0.3,0.1,0.4,0.1   c0.3,0,0.6-0.1,0.8-0.2c0.2-0.1,0.4-0.2,0.4-0.4c0.1-0.2,0.2-0.3,0.2-0.5c0.1-0.2,0.1-0.3,0.1-0.4L168.8,75.7L168.8,75.7z"
       id="path38" /><path
       class="st1"
       d="M177.3,73.5c-0.3,0-0.6,0.1-0.8,0.2s-0.3,0.3-0.5,0.5c-0.1,0.2-0.2,0.4-0.2,0.7s-0.1,0.5-0.1,0.8   s0.1,0.5,0.1,0.8c0.1,0.2,0.2,0.5,0.2,0.7c0.1,0.2,0.3,0.3,0.4,0.5c0.2,0.2,0.4,0.2,0.8,0.2c0.4,0,0.8-0.1,1-0.3s0.4-0.6,0.4-1h1.8   c-0.1,0.9-0.4,1.6-1.1,2.1c-0.6,0.4-1.3,0.7-2.2,0.7c-0.5,0-0.9-0.1-1.4-0.2c-0.5-0.2-0.8-0.4-1.1-0.7c-0.3-0.3-0.5-0.7-0.7-1.1   c-0.2-0.4-0.2-0.9-0.2-1.4s0.1-1,0.2-1.5c0.1-0.4,0.3-0.8,0.6-1.2c0.3-0.3,0.7-0.6,1.1-0.8c0.4-0.2,0.9-0.2,1.4-0.2   c0.4,0,0.8,0.1,1.1,0.2c0.4,0.1,0.7,0.2,1,0.5c0.3,0.2,0.6,0.5,0.7,0.8c0.2,0.3,0.3,0.7,0.3,1.1h-1.8   C178.5,73.9,178.1,73.5,177.3,73.5z"
       id="path40" /><path
       class="st1"
       d="M186,81c-0.4,0.2-0.9,0.3-1.5,0.3c-0.2,0-0.4,0-0.6,0c-0.2,0-0.4,0-0.6,0v-1.5c0.1,0,0.3,0,0.6,0   c0.2,0,0.3,0,0.6,0c0.2,0,0.4-0.1,0.6-0.3c0.1-0.2,0.2-0.3,0.2-0.6c0-0.2-0.1-0.3-0.1-0.4l-2.3-6.3h1.9l1.5,4.6h0.1l1.4-4.6h1.9   l-2.8,7.5C186.6,80.4,186.4,80.8,186,81z"
       id="path42" /><path
       class="st1"
       d="M199.6,72.3v0.9h0.1c0.2-0.3,0.6-0.6,0.9-0.8c0.3-0.2,0.8-0.3,1.2-0.3c0.4,0,0.8,0.1,1.1,0.2   c0.4,0.2,0.6,0.5,0.8,0.8c0.2-0.3,0.4-0.5,0.8-0.8s0.8-0.3,1.2-0.3c0.4,0,0.7,0,1,0.2c0.3,0.1,0.6,0.2,0.8,0.4s0.4,0.4,0.5,0.8   c0.1,0.3,0.2,0.7,0.2,1.1V79h-1.8v-3.8c0-0.2,0-0.4-0.1-0.7c0-0.2-0.1-0.3-0.2-0.5c-0.1-0.2-0.2-0.2-0.3-0.3   c-0.2-0.1-0.4-0.2-0.6-0.2s-0.4,0.1-0.6,0.2c-0.2,0.1-0.3,0.2-0.4,0.4c-0.1,0.2-0.1,0.3-0.2,0.6c0,0.2-0.1,0.4-0.1,0.6V79h-1.8   v-3.8c0-0.2,0-0.4,0-0.6c0-0.2-0.1-0.4-0.1-0.6c0-0.1-0.1-0.3-0.3-0.4c-0.2-0.1-0.4-0.2-0.7-0.2c-0.1,0-0.2,0-0.3,0.1   c-0.2,0-0.3,0.1-0.4,0.2c-0.1,0.1-0.2,0.2-0.3,0.5c-0.1,0.2-0.2,0.4-0.2,0.8v3.9h-1.8v-6.6H199.6z"
       id="path44" /><path
       class="st1"
       d="M211.5,74.4c0.1-0.5,0.2-0.8,0.4-1.1c0.2-0.3,0.4-0.5,0.8-0.7c0.3-0.2,0.6-0.3,1-0.3c0.3,0,0.8-0.1,1.1-0.1   s0.7,0,1.1,0.1c0.4,0,0.6,0.2,0.9,0.3c0.3,0.2,0.5,0.3,0.7,0.6s0.2,0.6,0.2,1v3.5c0,0.3,0,0.6,0.1,0.8c0.1,0.3,0.1,0.5,0.2,0.6   h-1.9c-0.1-0.1-0.1-0.2-0.1-0.3c0-0.1-0.1-0.2-0.1-0.3c-0.3,0.3-0.6,0.5-1.1,0.7c-0.4,0.1-0.8,0.2-1.2,0.2c-0.3,0-0.6,0-0.9-0.1   c-0.3-0.1-0.5-0.2-0.8-0.3c-0.2-0.1-0.4-0.3-0.5-0.6c-0.1-0.2-0.2-0.5-0.2-0.9c0-0.4,0.1-0.7,0.2-0.9s0.3-0.5,0.5-0.6   c0.2-0.2,0.4-0.2,0.8-0.3c0.2-0.1,0.5-0.2,0.8-0.2c0.3,0,0.6-0.1,0.8-0.1s0.5,0,0.7-0.1c0.2,0,0.4-0.2,0.5-0.2   c0.1-0.1,0.2-0.2,0.1-0.4c0-0.2-0.1-0.3-0.1-0.5c-0.1-0.1-0.1-0.2-0.2-0.2c-0.1,0-0.2-0.1-0.4-0.2c-0.1,0-0.3,0-0.4,0   c-0.4,0-0.6,0.1-0.9,0.2c-0.2,0.2-0.4,0.4-0.4,0.8L211.5,74.4L211.5,74.4z M215.8,75.7c-0.1,0-0.2,0.1-0.3,0.2   c-0.1,0-0.2,0-0.4,0.1c-0.1,0-0.2,0-0.4,0s-0.3,0.1-0.4,0.1c-0.1,0-0.3,0-0.4,0.1c-0.1,0-0.2,0.1-0.4,0.2c-0.1,0.1-0.2,0.2-0.2,0.3   c-0.1,0.1-0.1,0.2-0.1,0.4c0,0.2,0.1,0.3,0.1,0.4s0.1,0.2,0.2,0.2c0.1,0.1,0.2,0.1,0.4,0.2c0.1,0.1,0.3,0.1,0.4,0.1   c0.4,0,0.6-0.1,0.9-0.2c0.2-0.1,0.4-0.2,0.4-0.4c0.1-0.2,0.1-0.3,0.2-0.5s0.1-0.3,0.1-0.4L215.8,75.7L215.8,75.7z"
       id="path46" /><path
       class="st1"
       d="M224.8,72.3v1.2h-1.4v3.3c0,0.3,0.1,0.5,0.1,0.6c0.1,0.1,0.3,0.2,0.6,0.2c0.1,0,0.2,0,0.3,0s0.2,0,0.2,0v1.4   c-0.1,0.1-0.4,0.1-0.5,0.1c-0.2,0-0.4,0-0.6,0c-0.3,0-0.6,0-0.8-0.1c-0.2,0-0.5-0.1-0.7-0.2c-0.2-0.1-0.4-0.2-0.4-0.5   c-0.1-0.2-0.1-0.5-0.1-0.8v-4h-1.1v-1.2h1.1v-2h1.9v2H224.8z"
       id="path48" /><path
       class="st1"
       d="M231.3,72.3v1.2H230v3.3c0,0.3,0.1,0.5,0.1,0.6c0.1,0.1,0.3,0.2,0.6,0.2c0.1,0,0.2,0,0.3,0s0.2,0,0.2,0v1.4   c-0.1,0.1-0.4,0.1-0.5,0.1c-0.2,0-0.4,0-0.6,0c-0.3,0-0.6,0-0.8-0.1c-0.2,0-0.5-0.1-0.7-0.2c-0.2-0.1-0.4-0.2-0.4-0.5   c-0.1-0.2-0.1-0.5-0.1-0.8v-4H227v-1.2h1.1v-2h1.9v2H231.3z"
       id="path50" /><path
       class="st1"
       d="M236.2,77.4c0.3,0.2,0.7,0.4,1.2,0.4c0.4,0,0.7-0.1,0.9-0.3c0.2-0.2,0.4-0.4,0.5-0.6h1.6   c-0.2,0.8-0.6,1.4-1.2,1.8s-1.2,0.5-1.9,0.5c-0.6,0-1-0.1-1.4-0.2s-0.8-0.4-1.1-0.7c-0.3-0.3-0.5-0.7-0.7-1.1   c-0.1-0.4-0.2-0.9-0.2-1.4c0-0.5,0.1-1,0.2-1.4c0.1-0.5,0.4-0.8,0.7-1.1c0.3-0.3,0.6-0.6,1.1-0.8c0.4-0.2,0.9-0.2,1.4-0.2   c0.6,0,1.1,0.1,1.5,0.3c0.4,0.2,0.8,0.5,1.1,0.9c0.2,0.3,0.4,0.8,0.6,1.2c0.1,0.5,0.1,1,0.1,1.5h-4.9   C235.7,76.7,235.9,77.2,236.2,77.4z M238.3,73.9c-0.2-0.2-0.6-0.3-1-0.3c-0.3,0-0.6,0-0.8,0.2c-0.2,0.1-0.4,0.2-0.4,0.3   c-0.1,0.2-0.2,0.3-0.2,0.4s-0.1,0.3-0.1,0.5h3C238.6,74.5,238.5,74.1,238.3,73.9z"
       id="path52" /><path
       class="st1"
       d="M245.4,72.3v1.2h0.1c0.1-0.2,0.2-0.4,0.4-0.6s0.3-0.3,0.5-0.4c0.2-0.2,0.4-0.2,0.6-0.3c0.2,0,0.4-0.1,0.7-0.1   c0.1,0,0.2,0,0.4,0.1v1.7c-0.1,0-0.2,0-0.3,0s-0.2,0-0.4,0c-0.4,0-0.6,0-0.9,0.2c-0.2,0.1-0.4,0.2-0.6,0.4   c-0.1,0.2-0.2,0.4-0.3,0.7c-0.1,0.2-0.1,0.5-0.1,0.8v3h-1.9v-6.7H245.4z"
       id="path54" /><path
       class="st1"
       d="M252.2,77.4c0.1,0.2,0.2,0.2,0.3,0.3c0.1,0.1,0.3,0.2,0.4,0.2c0.1,0.1,0.4,0.1,0.6,0.1c0.1,0,0.2,0,0.4-0.1   c0.1,0,0.2-0.1,0.4-0.2c0.1,0,0.2-0.2,0.3-0.2s0.1-0.2,0.1-0.4c0-0.3-0.2-0.5-0.6-0.6c-0.4-0.2-0.9-0.3-1.6-0.4   c-0.2,0-0.6-0.2-0.8-0.2c-0.2-0.1-0.5-0.2-0.7-0.3c-0.2-0.2-0.4-0.3-0.5-0.5c-0.1-0.2-0.2-0.5-0.2-0.8c0-0.5,0.1-0.8,0.2-1.1   s0.4-0.5,0.6-0.7c0.3-0.2,0.6-0.2,0.9-0.3s0.7-0.1,1.1-0.1s0.7,0.1,1.1,0.1c0.4,0.1,0.6,0.2,0.9,0.3c0.2,0.2,0.5,0.4,0.6,0.7   c0.2,0.2,0.3,0.6,0.3,1.1h-1.8c-0.1-0.3-0.1-0.6-0.4-0.7c-0.2-0.2-0.6-0.2-0.9-0.2c-0.1,0-0.2,0-0.4,0c-0.1,0-0.2,0-0.4,0.1   c-0.1,0-0.2,0.1-0.2,0.2c-0.1,0.1-0.1,0.2-0.1,0.3c0,0.2,0.1,0.3,0.2,0.4c0.1,0.1,0.3,0.2,0.4,0.2c0.2,0.1,0.4,0.1,0.6,0.2   c0.2,0,0.5,0.1,0.8,0.2c0.2,0,0.6,0.2,0.8,0.2c0.2,0.1,0.5,0.2,0.7,0.3c0.2,0.2,0.4,0.3,0.5,0.6s0.2,0.4,0.2,0.8   c0,0.5-0.1,0.8-0.2,1.1c-0.2,0.3-0.4,0.6-0.7,0.7c-0.3,0.2-0.6,0.3-1,0.4c-0.4,0-0.8,0.1-1.1,0.1c-0.4,0-0.8-0.1-1.1-0.1   c-0.4-0.1-0.7-0.2-1-0.4c-0.3-0.2-0.6-0.4-0.7-0.7c-0.2-0.3-0.3-0.7-0.3-1.1h1.8C252.1,77.1,252.2,77.2,252.2,77.4z"
       id="path56" /></g></svg>