<?xml version="1.0" encoding="UTF-8" standalone="no"?>
<!-- Generator: Adobe Illustrator 21.0.0, SVG Export Plug-In . SVG Version: 6.00 Build 0)  -->

<svg
   xmlns:dc="http://purl.org/dc/elements/1.1/"
   xmlns:cc="http://creativecommons.org/ns#"
   xmlns:rdf="http://www.w3.org/1999/02/22-rdf-syntax-ns#"
   xmlns:svg="http://www.w3.org/2000/svg"
   xmlns="http://www.w3.org/2000/svg"
   xmlns:sodipodi="http://sodipodi.sourceforge.net/DTD/sodipodi-0.dtd"
   xmlns:inkscape="http://www.inkscape.org/namespaces/inkscape"
   version="1.1"
   id="Layer_1"
   x="0px"
   y="0px"
   viewBox="0 0 64 64"
   style="enable-background:new 0 0 64 64;"
   xml:space="preserve"
   sodipodi:docname="disconnected.svg"
   inkscape:version="0.92.2 (5c3e80d, 2017-08-06)"><metadata
     id="metadata4820"><rdf:RDF><cc:Work
         rdf:about=""><dc:format>image/svg+xml</dc:format><dc:type
           rdf:resource="http://purl.org/dc/dcmitype/StillImage" /></cc:Work></rdf:RDF></metadata><defs
     id="defs4818" /><sodipodi:namedview
     pagecolor="#ffffff"
     bordercolor="#666666"
     borderopacity="1"
     objecttolerance="10"
     gridtolerance="10"
     guidetolerance="10"
     inkscape:pageopacity="0"
     inkscape:pageshadow="2"
     inkscape:window-width="3840"
     inkscape:window-height="2004"
     id="namedview4816"
     showgrid="false"
     inkscape:zoom="26.203125"
     inkscape:cx="32"
     inkscape:cy="32"
     inkscape:window-x="-16"
     inkscape:window-y="-16"
     inkscape:window-maximized="1"
     inkscape:current-layer="Layer_1" /><style
     type="text/css"
     id="style4807">
	.st0{fill:#262262;}
	.st1{fill:#FFFFFF;}
</style><circle
     class="st0"
     cx="32"
     cy="32"
     r="28.8"
     id="circle4809" /><g
     id="g4813"><path
       class="st1"
       d="M27.5,36.9L25,45.2h-5.5l9.4-29.2h6.7L45,45.2h-5.7l-2.6-8.3H27.5z M35.9,33l-2.2-7.2   c-0.5-1.8-1.1-3.8-1.4-5.4H32c-0.5,1.7-0.9,3.7-1.4,5.4L28.4,33H35.9z"
       id="path4811" /></g><path
     style="fill:#eb2626;fill-opacity:1;stroke:none;stroke-width:0.03822349;stroke-miterlimit:4;stroke-dasharray:none;stroke-opacity:1"
     d="m 19.543664,45.13393 c 0.0088,-0.02624 2.118684,-6.586175 4.688639,-14.57764 l 4.672646,-14.529936 3.342354,-7.74e-4 3.342353,-7.74e-4 4.682681,14.549791 c 2.575475,8.002386 4.68215,14.562672 4.681499,14.578414 -6.49e-4,0.01574 -1.271361,0.02862 -2.823802,0.02862 h -2.82262 l -0.04019,-0.143113 c -0.0221,-0.07871 -0.603275,-1.937746 -1.29149,-4.131186 l -1.251299,-3.988074 -4.622686,-0.0097 c -4.378381,-0.0092 -4.623734,-0.0062 -4.642518,0.05725 -0.02891,0.09758 -2.263216,7.52768 -2.375603,7.899973 l -0.09505,0.314848 h -2.730456 c -2.167451,0 -2.727158,-0.0098 -2.714463,-0.0477 z M 35.907931,32.985856 c 0,-0.01191 -0.496879,-1.64769 -1.104176,-3.635063 -1.383248,-4.526663 -2.047403,-6.880975 -2.368618,-8.396326 -0.06301,-0.297255 -0.114565,-0.549142 -0.114565,-0.559749 0,-0.01061 -0.07509,-0.01929 -0.166866,-0.01929 h -0.166867 l -0.119956,0.429338 c -0.06598,0.236136 -0.324942,1.253668 -0.575481,2.261181 -0.564167,2.268739 -0.531164,2.153249 -1.830565,6.405706 -0.589102,1.927908 -1.071093,3.512166 -1.071093,3.520572 0,0.0084 1.691592,0.01528 3.759093,0.01528 2.067502,0 3.759094,-0.0097 3.759094,-0.02166 z"
     id="path5365"
     inkscape:connector-curvature="0" /></svg>